<svg width="100" height="26" viewBox="0 0 100 26" fill="none" xmlns="http://www.w3.org/2000/svg">
<g clip-path="url(#clip0_5006_10369)">
<path d="M13.3177 0.492188V15.1634H11.7677C11.5343 15.1634 11.3377 15.1264 11.1777 15.0522C11.0177 14.9713 10.861 14.8365 10.7077 14.6477L3.4777 5.34552C3.4977 5.58145 3.51098 5.814 3.5177 6.04319C3.53098 6.27237 3.5377 6.4847 3.5377 6.68019V15.1634H0.887695V0.492188H2.4677C2.59434 0.492188 2.70098 0.498928 2.7877 0.512409C2.88098 0.51915 2.96434 0.542743 3.0377 0.583188C3.11098 0.616891 3.18098 0.664076 3.2477 0.724743C3.31434 0.78541 3.3877 0.866299 3.4677 0.96741L10.7477 10.3101C10.721 10.0539 10.701 9.80792 10.6877 9.57197C10.6743 9.3293 10.6677 9.10014 10.6677 8.88441V0.492188H13.3177Z" fill="#2D2C2C"/>
<path d="M20.316 4.57812C21.0893 4.57812 21.7926 4.70283 22.426 4.95224C23.0593 5.20164 23.6026 5.5589 24.056 6.02401C24.5093 6.48239 24.8593 7.04186 25.106 7.70246C25.3526 8.36307 25.476 9.1079 25.476 9.93701C25.476 10.7661 25.3526 11.5143 25.106 12.1817C24.8593 12.8423 24.5093 13.4051 24.056 13.8702C23.6026 14.3353 23.0593 14.6926 22.426 14.942C21.7926 15.1914 21.0893 15.3161 20.316 15.3161C19.536 15.3161 18.826 15.1914 18.186 14.942C17.5526 14.6926 17.0093 14.3353 16.556 13.8702C16.1026 13.4051 15.7493 12.8423 15.496 12.1817C15.2493 11.5143 15.126 10.7661 15.126 9.93701C15.126 9.1079 15.2493 8.36307 15.496 7.70246C15.7493 7.04186 16.1026 6.48239 16.556 6.02401C17.0093 5.5589 17.5526 5.20164 18.186 4.95224C18.826 4.70283 19.536 4.57812 20.316 4.57812ZM20.316 13.2231C21.1026 13.2231 21.686 12.9501 22.066 12.4041C22.446 11.8514 22.636 11.0324 22.636 9.94712C22.636 8.86863 22.446 8.05635 22.066 7.51035C21.686 6.95761 21.1026 6.68124 20.316 6.68124C19.5093 6.68124 18.916 6.95761 18.536 7.51035C18.156 8.05635 17.966 8.86863 17.966 9.94712C17.966 11.0324 18.156 11.8514 18.536 12.4041C18.916 12.9501 19.5093 13.2231 20.316 13.2231Z" fill="#2D2C2C"/>
<path d="M29.798 6.46017C30.1247 5.86699 30.5013 5.39851 30.928 5.05473C31.3547 4.71095 31.8547 4.53906 32.428 4.53906C32.8946 4.53906 33.2747 4.65028 33.568 4.87273L33.388 6.9354C33.3547 7.07021 33.3013 7.16458 33.228 7.21851C33.1613 7.26567 33.068 7.28928 32.948 7.28928C32.8413 7.28928 32.688 7.27578 32.488 7.24884C32.288 7.21513 32.1013 7.19828 31.928 7.19828C31.6746 7.19828 31.448 7.23533 31.248 7.30951C31.0546 7.38368 30.8813 7.48811 30.728 7.62295C30.5746 7.75779 30.4346 7.92289 30.308 8.1184C30.188 8.3139 30.0746 8.53635 29.968 8.78573V15.1658H27.208V4.74128H28.838C29.118 4.74128 29.3113 4.79184 29.418 4.89295C29.5246 4.99406 29.6013 5.16932 29.648 5.41873L29.798 6.46017Z" fill="#2D2C2C"/>
<path d="M40.9017 7.45073C40.6417 7.1474 40.3581 6.93507 40.0517 6.81373C39.7517 6.6924 39.4317 6.63173 39.0917 6.63173C38.7581 6.63173 38.4553 6.69577 38.1817 6.82384C37.9082 6.95192 37.6717 7.15414 37.4717 7.43051C37.2784 7.70012 37.1284 8.04729 37.0217 8.47196C36.915 8.89662 36.8617 9.40218 36.8617 9.98862C36.8617 10.5683 36.905 11.0604 36.9917 11.4648C37.0784 11.8693 37.2017 12.1962 37.3617 12.4456C37.5284 12.695 37.7284 12.877 37.9617 12.9916C38.1953 13.0995 38.4553 13.1534 38.7417 13.1534C39.2281 13.1534 39.6353 13.0557 39.9617 12.8602C40.2953 12.6647 40.6082 12.3884 40.9017 12.0311V7.45073ZM43.6617 0.0898438V15.1655H41.9617C41.6082 15.1655 41.3817 15.0037 41.2817 14.6802L41.0517 13.7702C40.8453 13.9993 40.6253 14.2084 40.3917 14.3971C40.1653 14.5858 39.9181 14.751 39.6517 14.8925C39.3853 15.0274 39.0981 15.1318 38.7917 15.206C38.4853 15.2801 38.1517 15.3172 37.7917 15.3172C37.2384 15.3172 36.7317 15.1992 36.2717 14.9633C35.8117 14.7273 35.4117 14.3836 35.0717 13.932C34.7384 13.4736 34.4784 12.9141 34.2917 12.2535C34.105 11.5929 34.0117 10.838 34.0117 9.98862C34.0117 9.21346 34.115 8.49218 34.3217 7.82484C34.535 7.15751 34.835 6.58118 35.2217 6.09584C35.6084 5.61051 36.075 5.22966 36.6217 4.95329C37.1684 4.67692 37.775 4.53873 38.4417 4.53873C39.0017 4.53873 39.4717 4.62299 39.8517 4.79151C40.2381 4.96003 40.5882 5.18922 40.9017 5.47907V0.0898438H43.6617Z" fill="#2D2C2C"/>
<path d="M48.718 0.0898438V8.64384H49.178C49.3516 8.64384 49.488 8.62023 49.588 8.57307C49.688 8.51912 49.788 8.42479 49.888 8.28995L52.168 5.21618C52.2816 5.06114 52.408 4.94318 52.548 4.86229C52.6944 4.7814 52.878 4.74095 53.098 4.74095H55.618L52.658 8.54273C52.4244 8.85957 52.1544 9.10895 51.848 9.29095C52.0016 9.39878 52.1344 9.52351 52.248 9.66507C52.3616 9.80662 52.4716 9.965 52.578 10.1403L55.768 15.1655H53.288C53.0744 15.1655 52.8916 15.1318 52.738 15.0644C52.5844 14.9902 52.458 14.8622 52.358 14.6802L50.038 10.8481C49.9444 10.6863 49.848 10.5818 49.748 10.5346C49.648 10.4875 49.498 10.4638 49.298 10.4638H48.718V15.1655H45.958V0.0898438H48.718Z" fill="#2D2C2C"/>
<path d="M59.715 4.73935V15.1639H56.955V4.73935H59.715ZM60.045 1.77679C60.045 2.01272 59.9986 2.23179 59.905 2.43401C59.8121 2.63624 59.685 2.81486 59.525 2.9699C59.3721 3.12494 59.1886 3.24628 58.975 3.3339C58.7686 3.42153 58.545 3.46535 58.305 3.46535C58.0786 3.46535 57.8621 3.42153 57.655 3.3339C57.455 3.24628 57.2786 3.12494 57.125 2.9699C56.9721 2.81486 56.8486 2.63624 56.755 2.43401C56.6686 2.23179 56.625 2.01272 56.625 1.77679C56.625 1.54086 56.6686 1.32179 56.755 1.11957C56.8486 0.910609 56.9721 0.728609 57.125 0.573569C57.2786 0.418532 57.455 0.297199 57.655 0.209569C57.8621 0.121939 58.0786 0.078125 58.305 0.078125C58.545 0.078125 58.7686 0.121939 58.975 0.209569C59.1886 0.297199 59.3721 0.418532 59.525 0.573569C59.685 0.728609 59.8121 0.910609 59.905 1.11957C59.9986 1.32179 60.045 1.54086 60.045 1.77679Z" fill="#2D2C2C"/>
<path d="M65.6295 15.3256C65.1623 15.3256 64.7495 15.2582 64.3895 15.1233C64.0295 14.9818 63.7259 14.783 63.4795 14.5268C63.2323 14.2706 63.0459 13.9606 62.9195 13.5966C62.7923 13.2326 62.7295 12.8214 62.7295 12.363V6.74122H61.7595C61.6123 6.74122 61.4859 6.69404 61.3795 6.59967C61.2795 6.50529 61.2295 6.36374 61.2295 6.175V5.083L62.8795 4.77967L63.4395 2.08C63.5123 1.77667 63.7159 1.625 64.0495 1.625H65.4895V4.79989H68.1495V6.74122H65.4895V12.181C65.4895 12.4708 65.5559 12.7001 65.6895 12.8686C65.8295 13.0371 66.0259 13.1213 66.2795 13.1213C66.4123 13.1213 66.5259 13.1078 66.6195 13.0809C66.7123 13.0472 66.7923 13.0135 66.8595 12.9798C66.9259 12.9393 66.9859 12.9056 67.0395 12.8787C67.0995 12.8449 67.1595 12.8281 67.2195 12.8281C67.2995 12.8281 67.3659 12.8483 67.4195 12.8888C67.4723 12.9225 67.5259 12.9832 67.5795 13.0708L68.4095 14.4054C68.0295 14.7088 67.5995 14.9379 67.1195 15.093C66.6395 15.2481 66.1423 15.3256 65.6295 15.3256Z" fill="#2D2C2C"/>
<path d="M0.713867 24.2161V18.0547H2.70608C3.3673 18.0547 3.86401 18.1929 4.19601 18.4694C4.53087 18.7459 4.69822 19.1549 4.69822 19.6966C4.69822 19.9844 4.6173 20.2397 4.45551 20.4626C4.29365 20.6826 4.07322 20.8533 3.79422 20.9746C4.12344 21.0677 4.38294 21.2455 4.57265 21.5078C4.76523 21.7673 4.86144 22.0777 4.86144 22.4388C4.86144 22.9917 4.6843 23.4262 4.32994 23.7422C3.97558 24.0582 3.47472 24.2161 2.82744 24.2161H0.713867ZM1.51744 21.3343V23.5517H2.84415C3.21808 23.5517 3.51244 23.4545 3.7273 23.2597C3.94487 23.0623 4.05372 22.7915 4.05372 22.4472C4.05372 21.7053 3.65472 21.3343 2.85672 21.3343H1.51744ZM1.51744 20.6826H2.73115C3.08272 20.6826 3.36315 20.5937 3.57244 20.416C3.78444 20.2383 3.89051 19.9971 3.89051 19.6924C3.89051 19.3538 3.7928 19.1084 3.59751 18.956C3.40223 18.8009 3.10508 18.7233 2.70608 18.7233H1.51744V20.6826Z" fill="#2D2C2C"/>
<path d="M5.72754 21.8825C5.72754 21.4339 5.81404 21.0305 5.98704 20.6722C6.16283 20.314 6.40561 20.0374 6.71525 19.8428C7.02775 19.6481 7.38354 19.5508 7.78254 19.5508C8.39918 19.5508 8.89718 19.7666 9.27668 20.1983C9.6589 20.6299 9.85004 21.204 9.85004 21.9206V21.9756C9.85004 22.4213 9.76497 22.8219 9.59475 23.1774C9.42733 23.5301 9.18597 23.8051 8.87068 24.0026C8.55818 24.2001 8.19825 24.2988 7.7909 24.2988C7.17704 24.2988 6.67904 24.083 6.29675 23.6514C5.91732 23.2197 5.72754 22.6485 5.72754 21.9375V21.8825ZM6.50604 21.9756C6.50604 22.4834 6.62182 22.8911 6.8534 23.1986C7.08775 23.5061 7.40025 23.6599 7.7909 23.6599C8.18432 23.6599 8.49682 23.5047 8.7284 23.1943C8.95997 22.8812 9.07575 22.4439 9.07575 21.8825C9.07575 21.3803 8.95718 20.9741 8.72004 20.6637C8.48568 20.3506 8.17318 20.194 7.78254 20.194C7.40025 20.194 7.09197 20.3478 6.85761 20.6553C6.62318 20.9628 6.50604 21.4029 6.50604 21.9756Z" fill="#2D2C2C"/>
<path d="M10.4808 23.5765L10.7486 23.2422C11.05 22.8472 11.2216 22.2548 11.2634 21.4649L11.3346 19.6367H14.2517V23.5765H14.8334V25.5612H14.0591V24.2155H10.8993V25.5612H10.125L10.1292 23.5765H10.4808ZM11.3974 23.5765H13.4774V20.3604H12.0837L12.0377 21.4522C11.9903 22.3634 11.7768 23.0715 11.3974 23.5765Z" fill="#2D2C2C"/>
<path d="M19.3935 24.2155H18.6192V22.2604H16.5392V24.2155H15.7607V19.6367H16.5392V21.6215H18.6192V19.6367H19.3935V24.2155Z" fill="#2D2C2C"/>
<path d="M20.4346 21.8825C20.4346 21.4339 20.5211 21.0305 20.6941 20.6722C20.8699 20.314 21.1126 20.0374 21.4223 19.8428C21.7348 19.6481 22.0905 19.5508 22.4895 19.5508C23.1061 19.5508 23.6042 19.7666 23.9836 20.1983C24.3659 20.6299 24.5571 21.204 24.5571 21.9206V21.9756C24.5571 22.4213 24.4719 22.8219 24.3017 23.1774C24.1344 23.5301 23.893 23.8051 23.5777 24.0026C23.2652 24.2001 22.9053 24.2988 22.4979 24.2988C21.8841 24.2988 21.386 24.083 21.0037 23.6514C20.6243 23.2197 20.4346 22.6485 20.4346 21.9375V21.8825ZM21.213 21.9756C21.213 22.4834 21.3288 22.8911 21.5604 23.1986C21.7948 23.5061 22.1073 23.6599 22.4979 23.6599C22.8913 23.6599 23.2038 23.5047 23.4354 23.1943C23.667 22.8812 23.7828 22.4439 23.7828 21.8825C23.7828 21.3803 23.6642 20.9741 23.427 20.6637C23.1926 20.3506 22.8801 20.194 22.4895 20.194C22.1073 20.194 21.7989 20.3478 21.5646 20.6553C21.3302 20.9628 21.213 21.4029 21.213 21.9756Z" fill="#2D2C2C"/>
<path d="M27.1411 21.9164H25.0986V21.2773H27.1411V21.9164Z" fill="#2D2C2C"/>
<path d="M30.505 23.1787L32.0452 19.6367H33.012V24.2155H32.2378V20.8851L30.7729 24.2155H30.2372L28.743 20.8131V24.2155H27.9688V19.6367H28.9733L30.505 23.1787Z" fill="#2D2C2C"/>
<path d="M34.0537 21.8825C34.0537 21.4339 34.1402 21.0305 34.3132 20.6722C34.489 20.314 34.7317 20.0374 35.0414 19.8428C35.3539 19.6481 35.7096 19.5508 36.1086 19.5508C36.7253 19.5508 37.2234 19.7666 37.6028 20.1983C37.9853 20.6299 38.176 21.204 38.176 21.9206V21.9756C38.176 22.4213 38.091 22.8219 37.921 23.1774C37.7535 23.5301 37.5121 23.8051 37.1969 24.0026C36.8844 24.2001 36.5244 24.2988 36.1171 24.2988C35.5032 24.2988 35.0051 24.083 34.6229 23.6514C34.2434 23.2197 34.0537 22.6485 34.0537 21.9375V21.8825ZM34.8321 21.9756C34.8321 22.4834 34.9479 22.8911 35.1796 23.1986C35.4139 23.5061 35.7264 23.6599 36.1171 23.6599C36.5104 23.6599 36.8229 23.5047 37.0546 23.1943C37.2861 22.8812 37.4019 22.4439 37.4019 21.8825C37.4019 21.3803 37.2834 20.9741 37.0461 20.6637C36.8118 20.3506 36.4993 20.194 36.1086 20.194C35.7264 20.194 35.4181 20.3478 35.1837 20.6553C34.9494 20.9628 34.8321 21.4029 34.8321 21.9756Z" fill="#2D2C2C"/>
<path d="M42.4203 20.2715H40.901V24.2155H40.1267V20.2715H38.6367V19.6367H42.4203V20.2715Z" fill="#2D2C2C"/>
<path d="M42.793 21.8825C42.793 21.4339 42.8794 21.0305 43.0523 20.6722C43.2287 20.314 43.4708 20.0374 43.7808 19.8428C44.093 19.6481 44.4494 19.5508 44.848 19.5508C45.4644 19.5508 45.963 19.7666 46.3423 20.1983C46.7244 20.6299 46.9158 21.204 46.9158 21.9206V21.9756C46.9158 22.4213 46.8301 22.8219 46.6601 23.1774C46.493 23.5301 46.2515 23.8051 45.9365 24.0026C45.6237 24.2001 45.2637 24.2988 44.8565 24.2988C44.2423 24.2988 43.7444 24.083 43.3623 23.6514C42.983 23.2197 42.793 22.6485 42.793 21.9375V21.8825ZM43.5715 21.9756C43.5715 22.4834 43.6873 22.8911 43.9187 23.1986C44.153 23.5061 44.4658 23.6599 44.8565 23.6599C45.2501 23.6599 45.5623 23.5047 45.7937 23.1943C46.0258 22.8812 46.1415 22.4439 46.1415 21.8825C46.1415 21.3803 46.023 20.9741 45.7858 20.6637C45.5508 20.3506 45.2387 20.194 44.848 20.194C44.4658 20.194 44.1572 20.3478 43.923 20.6553C43.6887 20.9628 43.5715 21.4029 43.5715 21.9756Z" fill="#2D2C2C"/>
<path d="M51.7117 21.9756C51.7117 22.6724 51.5546 23.2338 51.2389 23.6599C50.9239 24.0858 50.4967 24.2988 49.9581 24.2988C49.4089 24.2988 48.976 24.1225 48.661 23.7699V25.9747H47.8867V19.6354H48.5939L48.6317 20.1432C48.9467 19.7483 49.3853 19.5508 49.946 19.5508C50.4903 19.5508 50.9196 19.7581 51.2353 20.1728C51.5531 20.5876 51.7117 21.1645 51.7117 21.9036V21.9756ZM50.9374 21.8867C50.9374 21.3705 50.8289 20.9628 50.611 20.6637C50.3939 20.3647 50.0953 20.2152 49.716 20.2152C49.2467 20.2152 48.8953 20.4254 48.661 20.8457V23.0336C48.8924 23.4511 49.2467 23.6599 49.7239 23.6599C50.0953 23.6599 50.3896 23.5117 50.6074 23.2155C50.8274 22.9165 50.9374 22.4735 50.9374 21.8867Z" fill="#2D2C2C"/>
<path d="M56.3985 24.2155H55.6242V22.2604H53.5442V24.2155H52.7656V19.6367H53.5442V21.6215H55.6242V19.6367H56.3985V24.2155Z" fill="#2D2C2C"/>
<path d="M60.4423 24.2142C60.398 24.1239 60.3616 23.9631 60.3337 23.7318C59.9737 24.1098 59.5437 24.2988 59.0445 24.2988C58.598 24.2988 58.2309 24.1719 57.9437 23.918C57.6595 23.6612 57.5166 23.3368 57.5166 22.9446C57.5166 22.4679 57.6952 22.0983 58.0523 21.836C58.4123 21.5708 58.9173 21.4382 59.568 21.4382H60.3209V21.0785C60.3209 20.8048 60.2402 20.5876 60.078 20.4268C59.9166 20.2631 59.678 20.1814 59.3623 20.1814C59.0866 20.1814 58.8545 20.2518 58.668 20.3929C58.4809 20.5339 58.3873 20.7047 58.3873 20.9049H57.6087C57.6087 20.6764 57.6887 20.4564 57.8473 20.2448C58.0095 20.0304 58.2273 19.8611 58.5002 19.737C58.7766 19.6129 59.0795 19.5508 59.4087 19.5508C59.9302 19.5508 60.3395 19.6834 60.6352 19.9486C60.9309 20.211 61.0845 20.5734 61.0952 21.0362V23.1435C61.0952 23.564 61.148 23.8983 61.2545 24.1465V24.2142H60.4423ZM59.1573 23.6175C59.4002 23.6175 59.6302 23.5541 59.848 23.4271C60.0659 23.3001 60.223 23.1351 60.3209 22.932V21.9925H59.7145C58.7652 21.9925 58.2909 22.2733 58.2909 22.8347C58.2909 23.0801 58.3723 23.272 58.5337 23.4102C58.6959 23.5484 58.9037 23.6175 59.1573 23.6175Z" fill="#2D2C2C"/>
<path d="M65.7699 19.6367V24.2155H64.9914V22.434H63.8242L62.7563 24.2155H61.9199L63.0578 22.3154C62.7678 22.2083 62.5442 22.0432 62.3885 21.8203C62.2349 21.5946 62.1578 21.3323 62.1578 21.0332C62.1578 20.6157 62.3128 20.2799 62.6228 20.0261C62.9321 19.7693 63.3471 19.6395 63.8656 19.6367H65.7699ZM62.9363 21.0417C62.9363 21.2645 63.0121 21.4451 63.1628 21.5833C63.3135 21.7187 63.5128 21.7879 63.7614 21.7907H64.9914V20.2715H63.8785C63.5906 20.2715 63.3621 20.3434 63.1921 20.4873C63.0213 20.6284 62.9363 20.8131 62.9363 21.0417Z" fill="#2D2C2C"/>
<path d="M72.5062 20.2715H70.9869V24.2155H70.2127V20.2715H68.7227V19.6367H72.5062V20.2715Z" fill="#2D2C2C"/>
<path d="M74.802 24.2988C74.1877 24.2988 73.6884 24.0957 73.3034 23.6895C72.9184 23.2804 72.7256 22.7345 72.7256 22.0518V21.9079C72.7256 21.4537 72.8113 21.0488 72.9813 20.6933C73.1542 20.3351 73.3942 20.0558 73.7013 19.8555C74.0106 19.6523 74.3456 19.5508 74.7056 19.5508C75.2942 19.5508 75.752 19.7469 76.0784 20.139C76.4049 20.5311 76.5677 21.0926 76.5677 21.8233V22.1491H73.4999C73.5113 22.6005 73.6413 22.9658 73.8892 23.2452C74.1406 23.5216 74.4585 23.6599 74.8435 23.6599C75.117 23.6599 75.3484 23.6034 75.5384 23.4906C75.7284 23.3777 75.8942 23.2282 76.0363 23.042L76.5092 23.4144C76.1299 24.004 75.5606 24.2988 74.802 24.2988ZM74.7056 20.194C74.3927 20.194 74.1306 20.3097 73.9184 20.541C73.7063 20.7695 73.5756 21.0911 73.5256 21.5058H75.7934V21.4466C75.7713 21.0488 75.6656 20.7414 75.4756 20.5241C75.2856 20.3041 75.0292 20.194 74.7056 20.194Z" fill="#2D2C2C"/>
<path d="M78.9873 21.3083L79.9916 19.6367H80.8959L79.4144 21.9007L80.9416 24.2155H80.0459L79.0001 22.5016L77.9537 24.2155H77.0537L78.5816 21.9007L77.0994 19.6367H77.9951L78.9873 21.3083Z" fill="#2D2C2C"/>
<path d="M85.4219 24.2155H84.6476V22.2604H82.5676V24.2155H81.7891V19.6367H82.5676V21.6215H84.6476V19.6367H85.4219V24.2155Z" fill="#2D2C2C"/>
<path d="M89.5972 19.6367H90.3715V24.2155H89.5972V20.8766L87.5087 24.2155H86.7344V19.6367H87.5087V22.9798L89.5972 19.6367Z" fill="#2D2C2C"/>
<path d="M93.0235 22.2647H92.4585V24.2155H91.6807V19.6367H92.4585V21.5749H92.9649L94.4885 19.6367H95.4264L93.6349 21.8373L95.5771 24.2155H94.5935L93.0235 22.2647Z" fill="#2D2C2C"/>
<path d="M99.0383 24.2142C98.994 24.1239 98.9576 23.9631 98.9297 23.7318C98.5697 24.1098 98.1397 24.2988 97.6404 24.2988C97.194 24.2988 96.8276 24.1719 96.5397 23.918C96.2554 23.6612 96.1133 23.3368 96.1133 22.9446C96.1133 22.4679 96.2919 22.0983 96.649 21.836C97.0083 21.5708 97.514 21.4382 98.164 21.4382H98.9168V21.0785C98.9168 20.8048 98.8361 20.5876 98.6747 20.4268C98.5126 20.2631 98.274 20.1814 97.959 20.1814C97.6826 20.1814 97.4511 20.2518 97.264 20.3929C97.0768 20.5339 96.9833 20.7047 96.9833 20.9049H96.2054C96.2054 20.6764 96.2847 20.4564 96.4433 20.2448C96.6054 20.0304 96.8233 19.8611 97.0969 19.737C97.3726 19.6129 97.6754 19.5508 98.0047 19.5508C98.5268 19.5508 98.9354 19.6834 99.2311 19.9486C99.5268 20.211 99.6804 20.5734 99.6911 21.0362V23.1435C99.6911 23.564 99.7447 23.8983 99.8504 24.1465V24.2142H99.0383ZM97.7533 23.6175C97.9961 23.6175 98.2269 23.5541 98.444 23.4271C98.6619 23.3001 98.8197 23.1351 98.9168 22.932V21.9925H98.3104C97.3618 21.9925 96.8876 22.2733 96.8876 22.8347C96.8876 23.0801 96.9683 23.272 97.1297 23.4102C97.2918 23.5484 97.4997 23.6175 97.7533 23.6175Z" fill="#2D2C2C"/>
</g>
<defs>
<clipPath id="clip0_5006_10369">
<rect width="100" height="26" fill="white"/>
</clipPath>
</defs>
</svg>
