<svg width="187" height="36" viewBox="0 0 187 36" fill="none" xmlns="http://www.w3.org/2000/svg">
<g clip-path="url(#clip0_5006_34533)">
<g clip-path="url(#clip1_5006_34533)">
<g clip-path="url(#clip2_5006_34533)">
<path d="M65.6461 0.6875V21.0015H63.4761C63.1494 21.0015 62.8741 20.9502 62.6501 20.8475C62.4261 20.7355 62.2067 20.5488 61.9921 20.2875L51.8701 7.4075C51.8981 7.73417 51.9167 8.05617 51.9261 8.3735C51.9447 8.69083 51.9541 8.98483 51.9541 9.2555V21.0015H48.2441V0.6875H50.4561C50.6334 0.6875 50.7827 0.696833 50.9041 0.715499C51.0347 0.724833 51.1514 0.7575 51.2541 0.813501C51.3567 0.860167 51.4547 0.9255 51.5481 1.0095C51.6414 1.0935 51.7441 1.2055 51.8561 1.3455L62.0481 14.2815C62.0107 13.9268 61.9827 13.5862 61.9641 13.2595C61.9454 12.9235 61.9361 12.6062 61.9361 12.3075V0.6875H65.6461Z" fill="#2D2C2C"/>
<path d="M75.4398 6.34375C76.5225 6.34375 77.5071 6.51642 78.3938 6.86175C79.2805 7.20708 80.0411 7.70175 80.6758 8.34575C81.3105 8.98042 81.8005 9.75508 82.1458 10.6698C82.4911 11.5845 82.6638 12.6158 82.6638 13.7638C82.6638 14.9117 82.4911 15.9478 82.1458 16.8718C81.8005 17.7865 81.3105 18.5658 80.6758 19.2098C80.0411 19.8538 79.2805 20.3484 78.3938 20.6937C77.5071 21.039 76.5225 21.2117 75.4398 21.2117C74.3478 21.2117 73.3538 21.039 72.4578 20.6937C71.5711 20.3484 70.8105 19.8538 70.1758 19.2098C69.5411 18.5658 69.0465 17.7865 68.6918 16.8718C68.3465 15.9478 68.1738 14.9117 68.1738 13.7638C68.1738 12.6158 68.3465 11.5845 68.6918 10.6698C69.0465 9.75508 69.5411 8.98042 70.1758 8.34575C70.8105 7.70175 71.5711 7.20708 72.4578 6.86175C73.3538 6.51642 74.3478 6.34375 75.4398 6.34375ZM75.4398 18.3138C76.5411 18.3138 77.3578 17.9357 77.8898 17.1797C78.4218 16.4144 78.6878 15.2804 78.6878 13.7778C78.6878 12.2845 78.4218 11.1598 77.8898 10.4038C77.3578 9.63842 76.5411 9.25575 75.4398 9.25575C74.3105 9.25575 73.4798 9.63842 72.9478 10.4038C72.4158 11.1598 72.1498 12.2845 72.1498 13.7778C72.1498 15.2804 72.4158 16.4144 72.9478 17.1797C73.4798 17.9357 74.3105 18.3138 75.4398 18.3138Z" fill="#2D2C2C"/>
<path d="M88.7158 8.94516C89.1731 8.12383 89.7004 7.47516 90.2978 6.99916C90.8951 6.52316 91.5951 6.28516 92.3978 6.28516C93.0511 6.28516 93.5831 6.43916 93.9938 6.74716L93.7418 9.60316C93.6951 9.78983 93.6204 9.92049 93.5178 9.99516C93.4244 10.0605 93.2938 10.0932 93.1258 10.0932C92.9764 10.0932 92.7618 10.0745 92.4818 10.0372C92.2018 9.99049 91.9404 9.96716 91.6978 9.96716C91.3431 9.96716 91.0258 10.0185 90.7458 10.1212C90.4751 10.2239 90.2324 10.3685 90.0178 10.5552C89.8031 10.7419 89.6071 10.9705 89.4298 11.2412C89.2618 11.5119 89.1031 11.8199 88.9538 12.1652V20.9992H85.0898V6.56516H87.3718C87.7638 6.56516 88.0344 6.63516 88.1838 6.77516C88.3331 6.91516 88.4404 7.15783 88.5058 7.50316L88.7158 8.94516Z" fill="#2D2C2C"/>
<path d="M104.261 10.317C103.897 9.897 103.5 9.603 103.071 9.435C102.651 9.267 102.203 9.183 101.727 9.183C101.26 9.183 100.836 9.27167 100.453 9.449C100.07 9.62633 99.7392 9.90633 99.4592 10.289C99.1885 10.6623 98.9785 11.143 98.8292 11.731C98.6798 12.319 98.6052 13.019 98.6052 13.831C98.6052 14.6337 98.6658 15.315 98.7872 15.875C98.9085 16.435 99.0812 16.8877 99.3052 17.233C99.5385 17.5783 99.8185 17.8303 100.145 17.989C100.472 18.1383 100.836 18.213 101.237 18.213C101.918 18.213 102.488 18.0777 102.945 17.807C103.412 17.5363 103.85 17.1537 104.261 16.659V10.317ZM108.125 0.125V20.999H105.745C105.25 20.999 104.933 20.775 104.793 20.327L104.471 19.067C104.182 19.3843 103.874 19.6737 103.547 19.935C103.23 20.1963 102.884 20.425 102.511 20.621C102.138 20.8077 101.736 20.9523 101.307 21.055C100.878 21.1577 100.411 21.209 99.9072 21.209C99.1325 21.209 98.4232 21.0457 97.7792 20.719C97.1352 20.3923 96.5752 19.9163 96.0992 19.291C95.6325 18.6563 95.2685 17.8817 95.0072 16.967C94.7458 16.0523 94.6152 15.007 94.6152 13.831C94.6152 12.7577 94.7598 11.759 95.0492 10.835C95.3478 9.911 95.7678 9.113 96.3092 8.441C96.8505 7.769 97.5038 7.24167 98.2692 6.859C99.0345 6.47633 99.8838 6.285 100.817 6.285C101.601 6.285 102.259 6.40167 102.791 6.635C103.332 6.86833 103.822 7.18567 104.261 7.587V0.125H108.125Z" fill="#2D2C2C"/>
<path d="M115.204 0.125V11.969H115.848C116.091 11.969 116.282 11.9363 116.422 11.871C116.562 11.7963 116.702 11.6657 116.842 11.479L120.034 7.223C120.193 7.00833 120.37 6.845 120.566 6.733C120.771 6.621 121.028 6.565 121.336 6.565H124.864L120.72 11.829C120.393 12.2677 120.015 12.613 119.586 12.865C119.801 13.0143 119.987 13.187 120.146 13.383C120.305 13.579 120.459 13.7983 120.608 14.041L125.074 20.999H121.602C121.303 20.999 121.047 20.9523 120.832 20.859C120.617 20.7563 120.44 20.579 120.3 20.327L117.052 15.021C116.921 14.797 116.786 14.6523 116.646 14.587C116.506 14.5217 116.296 14.489 116.016 14.489H115.204V20.999H111.34V0.125H115.204Z" fill="#2D2C2C"/>
<path d="M130.601 6.56728V21.0013H126.737V6.56728H130.601ZM131.063 2.46528C131.063 2.79195 130.998 3.09528 130.867 3.37528C130.737 3.65528 130.559 3.90261 130.335 4.11728C130.121 4.33195 129.864 4.49995 129.565 4.62128C129.276 4.74261 128.963 4.80328 128.627 4.80328C128.31 4.80328 128.007 4.74261 127.717 4.62128C127.437 4.49995 127.19 4.33195 126.975 4.11728C126.761 3.90261 126.588 3.65528 126.457 3.37528C126.336 3.09528 126.275 2.79195 126.275 2.46528C126.275 2.13861 126.336 1.83528 126.457 1.55528C126.588 1.26595 126.761 1.01395 126.975 0.799281C127.19 0.584614 127.437 0.416614 127.717 0.295281C128.007 0.173947 128.31 0.113281 128.627 0.113281C128.963 0.113281 129.276 0.173947 129.565 0.295281C129.864 0.416614 130.121 0.584614 130.335 0.799281C130.559 1.01395 130.737 1.26595 130.867 1.55528C130.998 1.83528 131.063 2.13861 131.063 2.46528Z" fill="#2D2C2C"/>
<path d="M138.883 21.2239C138.229 21.2239 137.651 21.1306 137.147 20.9439C136.643 20.7479 136.218 20.4726 135.873 20.1179C135.527 19.7632 135.266 19.3339 135.089 18.8299C134.911 18.3259 134.823 17.7566 134.823 17.1219V9.33791H133.465C133.259 9.33791 133.082 9.27258 132.933 9.14191C132.793 9.01124 132.723 8.81524 132.723 8.55391V7.04191L135.033 6.62191L135.817 2.88391C135.919 2.46391 136.204 2.25391 136.671 2.25391H138.687V6.64991H142.411V9.33791H138.687V16.8699C138.687 17.2712 138.78 17.5886 138.967 17.8219C139.163 18.0552 139.438 18.1719 139.793 18.1719C139.979 18.1719 140.138 18.1532 140.269 18.1159C140.399 18.0692 140.511 18.0226 140.605 17.9759C140.698 17.9199 140.782 17.8732 140.857 17.8359C140.941 17.7892 141.025 17.7659 141.109 17.7659C141.221 17.7659 141.314 17.7939 141.389 17.8499C141.463 17.8966 141.538 17.9806 141.613 18.1019L142.775 19.9499C142.243 20.3699 141.641 20.6872 140.969 20.9019C140.297 21.1166 139.601 21.2239 138.883 21.2239Z" fill="#2D2C2C"/>
<path d="M48 33.5312V25H50.7891C51.7148 25 52.4102 25.1914 52.875 25.5742C53.3438 25.957 53.5781 26.5234 53.5781 27.2734C53.5781 27.6719 53.4648 28.0254 53.2383 28.334C53.0117 28.6387 52.7031 28.875 52.3125 29.043C52.7734 29.1719 53.1367 29.418 53.4023 29.7812C53.6719 30.1406 53.8066 30.5703 53.8066 31.0703C53.8066 31.8359 53.5586 32.4375 53.0625 32.875C52.5664 33.3125 51.8652 33.5312 50.959 33.5312H48ZM49.125 29.541V32.6113H50.9824C51.5059 32.6113 51.918 32.4766 52.2188 32.207C52.5234 31.9336 52.6758 31.5586 52.6758 31.082C52.6758 30.0547 52.1172 29.541 51 29.541H49.125ZM49.125 28.6387H50.8242C51.3164 28.6387 51.709 28.5156 52.002 28.2695C52.2988 28.0234 52.4473 27.6895 52.4473 27.2676C52.4473 26.7988 52.3105 26.459 52.0371 26.248C51.7637 26.0332 51.3477 25.9258 50.7891 25.9258H49.125V28.6387Z" fill="#2D2C2C"/>
<path d="M55.0195 30.3027C55.0195 29.6816 55.1406 29.123 55.3828 28.627C55.6289 28.1309 55.9688 27.748 56.4023 27.4785C56.8398 27.209 57.3379 27.0742 57.8965 27.0742C58.7598 27.0742 59.457 27.373 59.9883 27.9707C60.5234 28.5684 60.791 29.3633 60.791 30.3555V30.4316C60.791 31.0488 60.6719 31.6035 60.4336 32.0957C60.1992 32.584 59.8613 32.9648 59.4199 33.2383C58.9824 33.5117 58.4785 33.6484 57.9082 33.6484C57.0488 33.6484 56.3516 33.3496 55.8164 32.752C55.2852 32.1543 55.0195 31.3633 55.0195 30.3789V30.3027ZM56.1094 30.4316C56.1094 31.1348 56.2715 31.6992 56.5957 32.125C56.9238 32.5508 57.3613 32.7637 57.9082 32.7637C58.459 32.7637 58.8965 32.5488 59.2207 32.1191C59.5449 31.6855 59.707 31.0801 59.707 30.3027C59.707 29.6074 59.541 29.0449 59.209 28.6152C58.8809 28.1816 58.4434 27.9648 57.8965 27.9648C57.3613 27.9648 56.9297 28.1777 56.6016 28.6035C56.2734 29.0293 56.1094 29.6387 56.1094 30.4316Z" fill="#2D2C2C"/>
<path d="M61.6758 32.6465L62.0508 32.1836C62.4727 31.6367 62.7129 30.8164 62.7715 29.7227L62.8711 27.1914H66.9551V32.6465H67.7695V35.3945H66.6855V33.5312H62.2617V35.3945H61.1777L61.1836 32.6465H61.6758ZM62.959 32.6465H65.8711V28.1934H63.9199L63.8555 29.7051C63.7891 30.9668 63.4902 31.9473 62.959 32.6465Z" fill="#2D2C2C"/>
<path d="M74.1504 33.5312H73.0664V30.8242H70.1543V33.5312H69.0645V27.1914H70.1543V29.9395H73.0664V27.1914H74.1504V33.5312Z" fill="#2D2C2C"/>
<path d="M75.6094 30.3027C75.6094 29.6816 75.7305 29.123 75.9727 28.627C76.2188 28.1309 76.5586 27.748 76.9922 27.4785C77.4297 27.209 77.9277 27.0742 78.4863 27.0742C79.3496 27.0742 80.0469 27.373 80.5781 27.9707C81.1133 28.5684 81.3809 29.3633 81.3809 30.3555V30.4316C81.3809 31.0488 81.2617 31.6035 81.0234 32.0957C80.7891 32.584 80.4512 32.9648 80.0098 33.2383C79.5723 33.5117 79.0684 33.6484 78.498 33.6484C77.6387 33.6484 76.9414 33.3496 76.4062 32.752C75.875 32.1543 75.6094 31.3633 75.6094 30.3789V30.3027ZM76.6992 30.4316C76.6992 31.1348 76.8613 31.6992 77.1855 32.125C77.5137 32.5508 77.9512 32.7637 78.498 32.7637C79.0488 32.7637 79.4863 32.5488 79.8105 32.1191C80.1348 31.6855 80.2969 31.0801 80.2969 30.3027C80.2969 29.6074 80.1309 29.0449 79.7988 28.6152C79.4707 28.1816 79.0332 27.9648 78.4863 27.9648C77.9512 27.9648 77.5195 28.1777 77.1914 28.6035C76.8633 29.0293 76.6992 29.6387 76.6992 30.4316Z" fill="#2D2C2C"/>
<path d="M84.9961 30.3496H82.1367V29.4648H84.9961V30.3496Z" fill="#2D2C2C"/>
<path d="M89.7071 32.0957L91.8633 27.1914H93.2169V33.5312H92.1329V28.9199L90.0821 33.5312H89.3321L87.2402 28.8203V33.5312H86.1562V27.1914H87.5626L89.7071 32.0957Z" fill="#2D2C2C"/>
<path d="M94.6758 30.3027C94.6758 29.6816 94.7969 29.123 95.0391 28.627C95.2852 28.1309 95.625 27.748 96.0586 27.4785C96.4961 27.209 96.9941 27.0742 97.5527 27.0742C98.416 27.0742 99.1133 27.373 99.6445 27.9707C100.18 28.5684 100.447 29.3633 100.447 30.3555V30.4316C100.447 31.0488 100.328 31.6035 100.09 32.0957C99.8555 32.584 99.5176 32.9648 99.0762 33.2383C98.6387 33.5117 98.1348 33.6484 97.5645 33.6484C96.7051 33.6484 96.0078 33.3496 95.4727 32.752C94.9414 32.1543 94.6758 31.3633 94.6758 30.3789V30.3027ZM95.7656 30.4316C95.7656 31.1348 95.9277 31.6992 96.252 32.125C96.5801 32.5508 97.0176 32.7637 97.5645 32.7637C98.1152 32.7637 98.5527 32.5488 98.877 32.1191C99.2012 31.6855 99.3633 31.0801 99.3633 30.3027C99.3633 29.6074 99.1973 29.0449 98.8652 28.6152C98.5371 28.1816 98.0996 27.9648 97.5527 27.9648C97.0176 27.9648 96.5859 28.1777 96.2578 28.6035C95.9297 29.0293 95.7656 29.6387 95.7656 30.4316Z" fill="#2D2C2C"/>
<path d="M106.389 28.0703H104.262V33.5312H103.178V28.0703H101.092V27.1914H106.389V28.0703Z" fill="#2D2C2C"/>
<path d="M106.91 30.3027C106.91 29.6816 107.031 29.123 107.273 28.627C107.52 28.1309 107.859 27.748 108.293 27.4785C108.73 27.209 109.229 27.0742 109.787 27.0742C110.65 27.0742 111.348 27.373 111.879 27.9707C112.414 28.5684 112.682 29.3633 112.682 30.3555V30.4316C112.682 31.0488 112.562 31.6035 112.324 32.0957C112.09 32.584 111.752 32.9648 111.311 33.2383C110.873 33.5117 110.369 33.6484 109.799 33.6484C108.939 33.6484 108.242 33.3496 107.707 32.752C107.176 32.1543 106.91 31.3633 106.91 30.3789V30.3027ZM108 30.4316C108 31.1348 108.162 31.6992 108.486 32.125C108.814 32.5508 109.252 32.7637 109.799 32.7637C110.35 32.7637 110.787 32.5488 111.111 32.1191C111.436 31.6855 111.598 31.0801 111.598 30.3027C111.598 29.6074 111.432 29.0449 111.1 28.6152C110.771 28.1816 110.334 27.9648 109.787 27.9648C109.252 27.9648 108.82 28.1777 108.492 28.6035C108.164 29.0293 108 29.6387 108 30.4316Z" fill="#2D2C2C"/>
<path d="M119.396 30.4316C119.396 31.3965 119.176 32.1738 118.734 32.7637C118.293 33.3535 117.695 33.6484 116.941 33.6484C116.172 33.6484 115.566 33.4043 115.125 32.916V35.9688H114.041V27.1914H115.031L115.084 27.8945C115.525 27.3477 116.139 27.0742 116.924 27.0742C117.686 27.0742 118.287 27.3613 118.729 27.9355C119.174 28.5098 119.396 29.3086 119.396 30.332V30.4316ZM118.312 30.3086C118.312 29.5938 118.16 29.0293 117.855 28.6152C117.551 28.2012 117.133 27.9941 116.602 27.9941C115.945 27.9941 115.453 28.2852 115.125 28.8672V31.8965C115.449 32.4746 115.945 32.7637 116.613 32.7637C117.133 32.7637 117.545 32.5586 117.85 32.1484C118.158 31.7344 118.312 31.1211 118.312 30.3086Z" fill="#2D2C2C"/>
<path d="M125.959 33.5312H124.875V30.8242H121.963V33.5312H120.873V27.1914H121.963V29.9395H124.875V27.1914H125.959V33.5312Z" fill="#2D2C2C"/>
<path d="M131.619 33.5312C131.557 33.4062 131.506 33.1836 131.467 32.8633C130.963 33.3867 130.361 33.6484 129.662 33.6484C129.037 33.6484 128.523 33.4727 128.121 33.1211C127.723 32.7656 127.523 32.3164 127.523 31.7734C127.523 31.1133 127.773 30.6016 128.273 30.2383C128.777 29.8711 129.484 29.6875 130.395 29.6875H131.449V29.1895C131.449 28.8105 131.336 28.5098 131.109 28.2871C130.883 28.0605 130.549 27.9473 130.107 27.9473C129.721 27.9473 129.396 28.0449 129.135 28.2402C128.873 28.4355 128.742 28.6719 128.742 28.9492H127.652C127.652 28.6328 127.764 28.3281 127.986 28.0352C128.213 27.7383 128.518 27.5039 128.9 27.332C129.287 27.1602 129.711 27.0742 130.172 27.0742C130.902 27.0742 131.475 27.2578 131.889 27.625C132.303 27.9883 132.518 28.4902 132.533 29.1309V32.0488C132.533 32.6309 132.607 33.0938 132.756 33.4375V33.5312H131.619ZM129.82 32.7051C130.16 32.7051 130.482 32.6172 130.787 32.4414C131.092 32.2656 131.312 32.0371 131.449 31.7559V30.4551H130.6C129.271 30.4551 128.607 30.8438 128.607 31.6211C128.607 31.9609 128.721 32.2266 128.947 32.418C129.174 32.6094 129.465 32.7051 129.82 32.7051Z" fill="#2D2C2C"/>
<path d="M139.077 27.1914V33.5312H137.988V31.0645H136.354L134.858 33.5312H133.688L135.281 30.9004C134.875 30.752 134.561 30.5234 134.343 30.2148C134.128 29.9023 134.02 29.5391 134.02 29.125C134.02 28.5469 134.237 28.082 134.671 27.7305C135.104 27.375 135.685 27.1953 136.411 27.1914H139.077ZM135.11 29.1367C135.11 29.4453 135.216 29.6953 135.427 29.8867C135.638 30.0742 135.918 30.1699 136.266 30.1738H137.988V28.0703H136.429C136.026 28.0703 135.706 28.1699 135.468 28.3691C135.229 28.5645 135.11 28.8203 135.11 29.1367Z" fill="#2D2C2C"/>
<path d="M148.506 28.0703H146.379V33.5312H145.295V28.0703H143.209V27.1914H148.506V28.0703Z" fill="#2D2C2C"/>
<path d="M151.723 33.6484C150.863 33.6484 150.164 33.3672 149.625 32.8047C149.086 32.2383 148.816 31.4824 148.816 30.5371V30.3379C148.816 29.709 148.936 29.1484 149.174 28.6562C149.416 28.1602 149.752 27.7734 150.182 27.4961C150.615 27.2148 151.084 27.0742 151.588 27.0742C152.412 27.0742 153.053 27.3457 153.51 27.8887C153.967 28.4316 154.195 29.209 154.195 30.2207V30.6719H149.9C149.916 31.2969 150.098 31.8027 150.445 32.1895C150.797 32.5723 151.242 32.7637 151.781 32.7637C152.164 32.7637 152.488 32.6855 152.754 32.5293C153.02 32.373 153.252 32.166 153.451 31.9082L154.113 32.4238C153.582 33.2402 152.785 33.6484 151.723 33.6484ZM151.588 27.9648C151.15 27.9648 150.783 28.125 150.486 28.4453C150.189 28.7617 150.006 29.207 149.936 29.7812H153.111V29.6992C153.08 29.1484 152.932 28.7227 152.666 28.4219C152.4 28.1172 152.041 27.9648 151.588 27.9648Z" fill="#2D2C2C"/>
<path d="M157.582 29.5059L158.988 27.1914H160.254L158.18 30.3262L160.318 33.5312H159.064L157.6 31.1582L156.135 33.5312H154.875L157.014 30.3262L154.939 27.1914H156.193L157.582 29.5059Z" fill="#2D2C2C"/>
<path d="M166.588 33.5312H165.504V30.8242H162.592V33.5312H161.502V27.1914H162.592V29.9395H165.504V27.1914H166.588V33.5312Z" fill="#2D2C2C"/>
<path d="M172.436 27.1914H173.52V33.5312H172.436V28.9082L169.512 33.5312H168.428V27.1914H169.512V31.8203L172.436 27.1914Z" fill="#2D2C2C"/>
<path d="M177.234 30.8301H176.443V33.5312H175.354V27.1914H176.443V29.875H177.152L179.285 27.1914H180.598L178.09 30.2383L180.809 33.5312H179.432L177.234 30.8301Z" fill="#2D2C2C"/>
<path d="M185.654 33.5312C185.592 33.4062 185.541 33.1836 185.502 32.8633C184.998 33.3867 184.396 33.6484 183.697 33.6484C183.072 33.6484 182.559 33.4727 182.156 33.1211C181.758 32.7656 181.559 32.3164 181.559 31.7734C181.559 31.1133 181.809 30.6016 182.309 30.2383C182.812 29.8711 183.52 29.6875 184.43 29.6875H185.484V29.1895C185.484 28.8105 185.371 28.5098 185.145 28.2871C184.918 28.0605 184.584 27.9473 184.143 27.9473C183.756 27.9473 183.432 28.0449 183.17 28.2402C182.908 28.4355 182.777 28.6719 182.777 28.9492H181.688C181.688 28.6328 181.799 28.3281 182.021 28.0352C182.248 27.7383 182.553 27.5039 182.936 27.332C183.322 27.1602 183.746 27.0742 184.207 27.0742C184.938 27.0742 185.51 27.2578 185.924 27.625C186.338 27.9883 186.553 28.4902 186.568 29.1309V32.0488C186.568 32.6309 186.643 33.0938 186.791 33.4375V33.5312H185.654ZM183.855 32.7051C184.195 32.7051 184.518 32.6172 184.822 32.4414C185.127 32.2656 185.348 32.0371 185.484 31.7559V30.4551H184.635C183.307 30.4551 182.643 30.8438 182.643 31.6211C182.643 31.9609 182.756 32.2266 182.982 32.418C183.209 32.6094 183.5 32.7051 183.855 32.7051Z" fill="#2D2C2C"/>
<path d="M0 15C0 2.71573 2.71573 0 15 0H21C33.2843 0 36 2.71573 36 15V21C36 33.2843 33.2843 36 21 36H15C2.71573 36 0 33.2843 0 21V15Z" fill="#2491EB"/>
<path d="M18.4348 11V25H17.0089C16.7943 25 16.6133 24.9646 16.4662 24.8939C16.319 24.8167 16.1748 24.688 16.0338 24.5079L9.38264 15.6313C9.40104 15.8564 9.4133 16.0783 9.41943 16.297C9.4317 16.5157 9.43783 16.7184 9.43783 16.9049V25H7V11H8.4535C8.57003 11 8.66815 11.0064 8.74788 11.0193C8.83374 11.0257 8.9104 11.0482 8.97786 11.0868C9.04533 11.119 9.10972 11.164 9.17105 11.2219C9.23238 11.2798 9.29984 11.357 9.37344 11.4535L16.0706 20.3687C16.046 20.1243 16.0276 19.8895 16.0154 19.6644C16.0031 19.4328 15.997 19.2141 15.997 19.0083V11H18.4348Z" fill="white"/>
<path d="M22.1504 16.7795H22.6932C23.147 16.7795 23.4751 16.6315 23.6775 16.3356L27.0537 11.5982C27.2131 11.3731 27.3879 11.2187 27.578 11.1351C27.7682 11.045 28.0012 11 28.2772 11H30.669L26.4189 16.7409C26.1429 17.1139 25.8578 17.3809 25.5634 17.5417C25.778 17.6317 25.9712 17.7507 26.1429 17.8987C26.3147 18.0402 26.4802 18.23 26.6397 18.468L31.0002 25H28.544C28.3845 25 28.2465 24.9871 28.13 24.9614C28.0196 24.9357 27.9215 24.9003 27.8356 24.8553C27.7498 24.8102 27.6762 24.7556 27.6148 24.6912C27.5535 24.6205 27.4952 24.5401 27.44 24.45L24.0087 19.4135C23.8922 19.2398 23.7542 19.1176 23.5947 19.0469C23.4353 18.9697 23.2114 18.9311 22.9232 18.9311H22.1504V25H19.3906V11H22.1504V16.7795Z" fill="white"/>
</g>
</g>
</g>
<defs>
<clipPath id="clip0_5006_34533">
<rect width="187" height="36" fill="white"/>
</clipPath>
<clipPath id="clip1_5006_34533">
<rect width="187" height="36" fill="white"/>
</clipPath>
<clipPath id="clip2_5006_34533">
<rect width="187" height="36" fill="white"/>
</clipPath>
</defs>
</svg>
