<svg width="31" height="30" viewBox="0 0 31 30" fill="none" xmlns="http://www.w3.org/2000/svg">
<path fill-rule="evenodd" clip-rule="evenodd" d="M5 7.5C5 7.10218 5.15804 6.72064 5.43934 6.43934C5.72064 6.15804 6.10218 6 6.5 6H24.5C24.8978 6 25.2794 6.15804 25.5607 6.43934C25.842 6.72064 26 7.10218 26 7.5C26 7.89782 25.842 8.27936 25.5607 8.56066C25.2794 8.84196 24.8978 9 24.5 9H6.5C6.10218 9 5.72064 8.84196 5.43934 8.56066C5.15804 8.27936 5 7.89782 5 7.5ZM5 15C5 14.6022 5.15804 14.2206 5.43934 13.9393C5.72064 13.658 6.10218 13.5 6.5 13.5H15.5C15.8978 13.5 16.2794 13.658 16.5607 13.9393C16.842 14.2206 17 14.6022 17 15C17 15.3978 16.842 15.7794 16.5607 16.0607C16.2794 16.342 15.8978 16.5 15.5 16.5H6.5C6.10218 16.5 5.72064 16.342 5.43934 16.0607C5.15804 15.7794 5 15.3978 5 15ZM5 22.5C5 22.1022 5.15804 21.7206 5.43934 21.4393C5.72064 21.158 6.10218 21 6.5 21H24.5C24.8978 21 25.2794 21.158 25.5607 21.4393C25.842 21.7206 26 22.1022 26 22.5C26 22.8978 25.842 23.2794 25.5607 23.5607C25.2794 23.842 24.8978 24 24.5 24H6.5C6.10218 24 5.72064 23.842 5.43934 23.5607C5.15804 23.2794 5 22.8978 5 22.5Z" fill="white"/>
</svg>
