<svg width="27" height="24" viewBox="0 0 27 24" fill="none" xmlns="http://www.w3.org/2000/svg">
<g clip-path="url(#clip0_5006_28277)">
<path d="M24.8707 10.2857C25.3191 10.2857 25.7019 10.4531 26.0192 10.7879C26.3364 11.1228 26.495 11.5268 26.495 12C26.495 12.4732 26.3364 12.8772 26.0192 13.2121C25.7019 13.5469 25.3191 13.7143 24.8707 13.7143H24.6804L23.221 22.5804C23.1533 22.9911 22.9672 23.3304 22.6626 23.5982C22.3581 23.8661 22.0112 24 21.6221 24H5.37883C4.98967 24 4.64281 23.8661 4.33825 23.5982C4.03369 23.3304 3.84757 22.9911 3.77989 22.5804L2.32053 13.7143H2.13018C1.6818 13.7143 1.29899 13.5469 0.981735 13.2121C0.664485 12.8772 0.505859 12.4732 0.505859 12C0.505859 11.5268 0.664485 11.1228 0.981735 10.7879C1.29899 10.4531 1.6818 10.2857 2.13018 10.2857H24.8707ZM6.66052 21C6.88048 20.9821 7.06449 20.8817 7.21254 20.6987C7.36059 20.5156 7.42615 20.308 7.40923 20.0759L7.00315 14.5045C6.98623 14.2723 6.89106 14.0781 6.71763 13.9219C6.5442 13.7656 6.3475 13.6964 6.12754 13.7143C5.90758 13.7321 5.72357 13.8326 5.57552 14.0156C5.42747 14.1987 5.36191 14.4062 5.37883 14.6384L5.78491 20.2098C5.80183 20.433 5.88854 20.6205 6.04505 20.7723C6.20156 20.9241 6.38557 21 6.59707 21H6.66052ZM11.8761 20.1429V14.5714C11.8761 14.3393 11.7958 14.1384 11.635 13.9688C11.4743 13.7991 11.2839 13.7143 11.064 13.7143C10.844 13.7143 10.6536 13.7991 10.4929 13.9688C10.3322 14.1384 10.2518 14.3393 10.2518 14.5714V20.1429C10.2518 20.375 10.3322 20.5759 10.4929 20.7455C10.6536 20.9152 10.844 21 11.064 21C11.2839 21 11.4743 20.9152 11.635 20.7455C11.7958 20.5759 11.8761 20.375 11.8761 20.1429ZM16.7491 20.1429V14.5714C16.7491 14.3393 16.6687 14.1384 16.508 13.9688C16.3472 13.7991 16.1569 13.7143 15.9369 13.7143C15.717 13.7143 15.5266 13.7991 15.3659 13.9688C15.2051 14.1384 15.1248 14.3393 15.1248 14.5714V20.1429C15.1248 20.375 15.2051 20.5759 15.3659 20.7455C15.5266 20.9152 15.717 21 15.9369 21C16.1569 21 16.3472 20.9152 16.508 20.7455C16.6687 20.5759 16.7491 20.375 16.7491 20.1429ZM21.216 20.2098L21.6221 14.6384C21.639 14.4062 21.5734 14.1987 21.4254 14.0156C21.2773 13.8326 21.0933 13.7321 20.8733 13.7143C20.6534 13.6964 20.4567 13.7656 20.2833 13.9219C20.1098 14.0781 20.0147 14.2723 19.9977 14.5045L19.5917 20.0759C19.5747 20.308 19.6403 20.5156 19.7884 20.6987C19.9364 20.8817 20.1204 20.9821 20.3404 21H20.4038C20.6153 21 20.7993 20.9241 20.9558 20.7723C21.1123 20.6205 21.1991 20.433 21.216 20.2098ZM6.54631 3.91071L5.36614 9.42857H3.69106L4.97275 3.52232C5.13349 2.73661 5.50996 2.09598 6.10216 1.60045C6.69436 1.10491 7.37116 0.857143 8.13256 0.857143H10.2518C10.2518 0.625 10.3322 0.424107 10.4929 0.254464C10.6536 0.0848214 10.844 0 11.064 0H15.9369C16.1569 0 16.3472 0.0848214 16.508 0.254464C16.6687 0.424107 16.7491 0.625 16.7491 0.857143H18.8683C19.6297 0.857143 20.3065 1.10491 20.8987 1.60045C21.4909 2.09598 21.8674 2.73661 22.0281 3.52232L23.3098 9.42857H21.6347L20.4546 3.91071C20.3615 3.51786 20.1691 3.19643 19.8772 2.94643C19.5853 2.69643 19.249 2.57143 18.8683 2.57143H16.7491C16.7491 2.80357 16.6687 3.00446 16.508 3.17411C16.3472 3.34375 16.1569 3.42857 15.9369 3.42857H11.064C10.844 3.42857 10.6536 3.34375 10.4929 3.17411C10.3322 3.00446 10.2518 2.80357 10.2518 2.57143H8.13256C7.75186 2.57143 7.41558 2.69643 7.12371 2.94643C6.83184 3.19643 6.63937 3.51786 6.54631 3.91071Z" fill="#2D2C2C"/>
</g>
<defs>
<clipPath id="clip0_5006_28277">
<rect width="26" height="24" fill="white" transform="translate(0.5)"/>
</clipPath>
</defs>
</svg>
