<svg width="25" height="24" viewBox="0 0 25 24" fill="none" xmlns="http://www.w3.org/2000/svg">
<path d="M22.9984 10.2857C23.4123 10.2857 23.7657 10.4531 24.0585 10.7879C24.3514 11.1228 24.4978 11.5268 24.4978 12C24.4978 12.4732 24.3514 12.8772 24.0585 13.2121C23.7657 13.5469 23.4123 13.7143 22.9984 13.7143H22.8227L21.4756 22.5804C21.4132 22.9911 21.2414 23.3304 20.9602 23.5982C20.6791 23.8661 20.3589 24 19.9997 24H5.00594C4.64671 24 4.32653 23.8661 4.0454 23.5982C3.76427 23.3304 3.59246 22.9911 3.52999 22.5804L2.1829 13.7143H2.00719C1.5933 13.7143 1.23993 13.5469 0.947083 13.2121C0.654236 12.8772 0.507812 12.4732 0.507812 12C0.507812 11.5268 0.654236 11.1228 0.947083 10.7879C1.23993 10.4531 1.5933 10.2857 2.00719 10.2857H22.9984ZM6.18904 21C6.39208 20.9821 6.56193 20.8817 6.69859 20.6987C6.83525 20.5156 6.89578 20.308 6.88016 20.0759L6.50531 14.5045C6.48969 14.2723 6.40184 14.0781 6.24175 13.9219C6.08166 13.7656 5.9001 13.6964 5.69706 13.7143C5.49402 13.7321 5.32416 13.8326 5.1875 14.0156C5.05084 14.1987 4.99032 14.4062 5.00594 14.6384L5.38078 20.2098C5.3964 20.433 5.47644 20.6205 5.62092 20.7723C5.76539 20.9241 5.93524 21 6.13047 21H6.18904ZM11.0034 20.1429V14.5714C11.0034 14.3393 10.9293 14.1384 10.7809 13.9688C10.6325 13.7991 10.4568 13.7143 10.2538 13.7143C10.0507 13.7143 9.875 13.7991 9.72663 13.9688C9.57825 14.1384 9.50406 14.3393 9.50406 14.5714V20.1429C9.50406 20.375 9.57825 20.5759 9.72663 20.7455C9.875 20.9152 10.0507 21 10.2538 21C10.4568 21 10.6325 20.9152 10.7809 20.7455C10.9293 20.5759 11.0034 20.375 11.0034 20.1429ZM15.5016 20.1429V14.5714C15.5016 14.3393 15.4274 14.1384 15.279 13.9688C15.1306 13.7991 14.9549 13.7143 14.7519 13.7143C14.5488 13.7143 14.3731 13.7991 14.2248 13.9688C14.0764 14.1384 14.0022 14.3393 14.0022 14.5714V20.1429C14.0022 20.375 14.0764 20.5759 14.2248 20.7455C14.3731 20.9152 14.5488 21 14.7519 21C14.9549 21 15.1306 20.9152 15.279 20.7455C15.4274 20.5759 15.5016 20.375 15.5016 20.1429ZM19.6248 20.2098L19.9997 14.6384C20.0153 14.4062 19.9548 14.1987 19.8181 14.0156C19.6815 13.8326 19.5116 13.7321 19.3086 13.7143C19.1055 13.6964 18.924 13.7656 18.7639 13.9219C18.6038 14.0781 18.5159 14.2723 18.5003 14.5045L18.1255 20.0759C18.1099 20.308 18.1704 20.5156 18.307 20.6987C18.4437 20.8817 18.6135 20.9821 18.8166 21H18.8752C19.0704 21 19.2402 20.9241 19.3847 20.7723C19.5292 20.6205 19.6092 20.433 19.6248 20.2098ZM6.08361 3.91071L4.99422 9.42857H3.44799L4.63109 3.52232C4.77947 2.73661 5.12698 2.09598 5.67363 1.60045C6.22028 1.10491 6.84502 0.857143 7.54785 0.857143H9.50406C9.50406 0.625 9.57825 0.424107 9.72663 0.254464C9.875 0.0848214 10.0507 0 10.2538 0H14.7519C14.9549 0 15.1306 0.0848214 15.279 0.254464C15.4274 0.424107 15.5016 0.625 15.5016 0.857143H17.4578C18.1606 0.857143 18.7854 1.10491 19.332 1.60045C19.8786 2.09598 20.2262 2.73661 20.3745 3.52232L21.5576 9.42857H20.0114L18.922 3.91071C18.8361 3.51786 18.6585 3.19643 18.389 2.94643C18.1196 2.69643 17.8092 2.57143 17.4578 2.57143H15.5016C15.5016 2.80357 15.4274 3.00446 15.279 3.17411C15.1306 3.34375 14.9549 3.42857 14.7519 3.42857H10.2538C10.0507 3.42857 9.875 3.34375 9.72663 3.17411C9.57825 3.00446 9.50406 2.80357 9.50406 2.57143H7.54785C7.19643 2.57143 6.88601 2.69643 6.61659 2.94643C6.34718 3.19643 6.16952 3.51786 6.08361 3.91071Z" fill="white"/>
</svg>
