<svg width="34" height="34" viewBox="0 0 34 34" fill="none" xmlns="http://www.w3.org/2000/svg">
<path d="M26.977 3.27516L27.892 9.06516L33.157 11.7502L30.502 17.0002L33.172 22.2502L27.862 24.9352L26.947 30.7252L21.112 29.8102L16.957 33.9502L12.787 29.7502L6.99703 30.7102L6.06703 24.8752L0.832031 22.2052L3.50203 16.9552L0.847031 11.7502L6.11203 9.03516L7.02703 3.29016L12.832 4.25016L17.002 0.0351562L21.157 4.19016L26.977 3.27516ZM13.252 9.50016C12.6553 9.50016 12.083 9.73721 11.661 10.1592C11.2391 10.5811 11.002 11.1534 11.002 11.7502C11.002 12.3469 11.2391 12.9192 11.661 13.3411C12.083 13.7631 12.6553 14.0002 13.252 14.0002C13.8488 14.0002 14.4211 13.7631 14.843 13.3411C15.265 12.9192 15.502 12.3469 15.502 11.7502C15.502 11.1534 15.265 10.5811 14.843 10.1592C14.4211 9.73721 13.8488 9.50016 13.252 9.50016ZM20.752 20.0002C20.1553 20.0002 19.583 20.2372 19.161 20.6592C18.7391 21.0811 18.502 21.6534 18.502 22.2502C18.502 22.8469 18.7391 23.4192 19.161 23.8411C19.583 24.2631 20.1553 24.5002 20.752 24.5002C21.3488 24.5002 21.9211 24.2631 22.343 23.8411C22.765 23.4192 23.002 22.8469 23.002 22.2502C23.002 21.6534 22.765 21.0811 22.343 20.6592C21.9211 20.2372 21.3488 20.0002 20.752 20.0002ZM11.617 24.5002L24.502 11.6152L22.387 9.50016L9.50203 22.3852L11.617 24.5002Z" fill="#C11111"/>
</svg>
