<svg width="14" height="14" viewBox="0 0 14 14" fill="none" xmlns="http://www.w3.org/2000/svg">
<path d="M6.99935 6.70866C6.61258 6.70866 6.24164 6.55501 5.96815 6.28152C5.69466 6.00803 5.54102 5.6371 5.54102 5.25033C5.54102 4.86355 5.69466 4.49262 5.96815 4.21913C6.24164 3.94564 6.61258 3.79199 6.99935 3.79199C7.38612 3.79199 7.75706 3.94564 8.03055 4.21913C8.30404 4.49262 8.45768 4.86355 8.45768 5.25033C8.45768 5.44184 8.41996 5.63147 8.34667 5.80841C8.27339 5.98534 8.16597 6.1461 8.03055 6.28152C7.89513 6.41694 7.73436 6.52436 7.55743 6.59765C7.3805 6.67094 7.19086 6.70866 6.99935 6.70866ZM6.99935 1.16699C5.91638 1.16699 4.87777 1.5972 4.112 2.36297C3.34622 3.12875 2.91602 4.16736 2.91602 5.25033C2.91602 8.31283 6.99935 12.8337 6.99935 12.8337C6.99935 12.8337 11.0827 8.31283 11.0827 5.25033C11.0827 4.16736 10.6525 3.12875 9.8867 2.36297C9.12093 1.5972 8.08232 1.16699 6.99935 1.16699Z" fill="#2D2C2C"/>
</svg>
