<svg width="44" height="44" viewBox="0 0 44 44" fill="none" xmlns="http://www.w3.org/2000/svg">
<rect width="44" height="44" rx="5.51402" fill="#2491EB"/>
<path d="M21 14V30H19.3789C19.1349 30 18.9292 29.9595 18.7619 29.8787C18.5946 29.7905 18.4307 29.6434 18.2704 29.4376L10.7088 19.2929C10.7297 19.5502 10.7436 19.8038 10.7506 20.0537C10.7646 20.3037 10.7715 20.5353 10.7715 20.7485V30H8V14H9.65246C9.78494 14 9.89649 14.0073 9.98713 14.0221C10.0847 14.0294 10.1719 14.0551 10.2486 14.0992C10.3253 14.136 10.3985 14.1874 10.4682 14.2536C10.5379 14.3198 10.6146 14.408 10.6983 14.5183L18.3122 24.7071C18.2842 24.4278 18.2633 24.1594 18.2494 23.9022C18.2354 23.6375 18.2285 23.3875 18.2285 23.1523V14H21Z" fill="white"/>
<path d="M25.328 20.6051H25.9826C26.5298 20.6051 26.9255 20.436 27.1696 20.0978L31.2409 14.6837C31.4331 14.4264 31.6439 14.2499 31.8732 14.1544C32.1025 14.0514 32.3835 14 32.7163 14H35.6006L30.4754 20.561C30.1426 20.9873 29.7988 21.2925 29.4438 21.4762C29.7026 21.5791 29.9355 21.7151 30.1426 21.8842C30.3498 22.0459 30.5493 22.2629 30.7417 22.5349L36 30H33.0381C32.8457 30 32.6793 29.9853 32.5388 29.9559C32.4057 29.9265 32.2874 29.8861 32.1838 29.8346C32.0803 29.7831 31.9916 29.7207 31.9176 29.6471C31.8436 29.5663 31.7733 29.4744 31.7068 29.3714L27.569 23.6154C27.4285 23.4169 27.2621 23.2773 27.0697 23.1965C26.8775 23.1082 26.6075 23.0641 26.26 23.0641H25.328V30H22V14H25.328V20.6051Z" fill="white"/>
</svg>
