<svg width="14" height="14" viewBox="0 0 14 14" fill="none" xmlns="http://www.w3.org/2000/svg">
<path d="M10.0505 5.98064C9.38186 7.70801 8.17185 9.18556 6.6151 10.1941L5.20848 9.04726C5.03584 8.90651 4.7984 8.87789 4.60236 8.96819C3.97423 9.24904 3.28382 9.43654 2.56421 9.50975C2.24502 9.54222 2.01043 9.82994 2.0429 10.1491L2.24894 12.1745C2.28141 12.4937 2.56913 12.7283 2.88832 12.6958C8.33769 12.1415 12.3048 7.27581 11.7504 1.82643C11.718 1.50725 11.4303 1.27266 11.1111 1.30513L9.07988 1.51176C8.7607 1.54423 8.52611 1.83195 8.55858 2.15113C8.63238 2.87656 8.58715 3.58477 8.43855 4.25659C8.39538 4.4662 8.46483 4.68781 8.64385 4.83378L10.0505 5.98064Z" fill="#2D2C2C"/>
</svg>
