<svg width="14" height="14" viewBox="0 0 14 14" fill="none" xmlns="http://www.w3.org/2000/svg">
<g clip-path="url(#clip0_5006_55656)">
<path d="M13.7074 6.59805C13.6909 8.32796 13.2422 9.68133 12.3091 10.8573C11.3071 12.1207 10.0024 12.9229 8.4059 13.2476C7.17273 13.4959 5.9726 13.3867 4.79448 12.9638C4.53298 12.8683 4.27699 12.7564 4.03201 12.6227C3.95769 12.5818 3.89438 12.5763 3.8118 12.6036C2.69699 12.9611 1.57943 13.3158 0.461876 13.6678C0.412329 13.6841 0.346267 13.7305 0.30773 13.6951C0.263689 13.6514 0.318741 13.5859 0.335256 13.5341C0.558218 12.8765 0.781179 12.2162 1.00689 11.5586C1.14452 11.1575 1.27665 10.7591 1.41978 10.3607C1.45832 10.2571 1.44456 10.1779 1.38675 10.0824C1.10323 9.6022 0.894036 9.08923 0.745395 8.55171C0.467382 7.54214 0.437103 6.52165 0.654559 5.50117C0.891283 4.38791 1.38675 3.39472 2.14922 2.53795C3.07135 1.50109 4.20817 0.816221 5.5597 0.486064C6.42127 0.275965 7.29109 0.243222 8.16642 0.385107C9.31151 0.57065 10.3437 1.02086 11.2438 1.74666C12.1797 2.50247 12.8624 3.4411 13.2918 4.568C13.5285 5.17647 13.7157 6.1724 13.7074 6.59805ZM1.98682 12.047C2.66947 11.8287 3.32183 11.6213 3.9687 11.4112C4.05403 11.384 4.12284 11.3894 4.19716 11.4385C4.4449 11.6022 4.7119 11.7332 4.98716 11.8478C5.88176 12.2244 6.81214 12.3608 7.7728 12.238C8.95092 12.0879 9.9859 11.6186 10.8557 10.8028C11.9513 9.7741 12.5376 8.5135 12.5899 7.02371C12.6394 5.56393 12.166 4.2815 11.1778 3.1928C10.2391 2.15868 9.06102 1.56931 7.67095 1.42196C6.46256 1.29372 5.33124 1.55293 4.28525 2.17505C3.39065 2.70985 2.70525 3.43837 2.22905 4.3579C1.7033 5.3702 1.52438 6.44525 1.67578 7.57215C1.78863 8.42346 2.09692 9.20656 2.59239 9.91053C2.64745 9.98966 2.66396 10.0551 2.63093 10.1479C2.52908 10.4262 2.43825 10.7073 2.34191 10.9856C2.2263 11.3294 2.11344 11.6732 1.98682 12.047Z" fill="#2491EB"/>
<path d="M3.81453 5.3125C3.8283 4.6631 4.05951 4.18014 4.49718 3.79541C4.63756 3.6699 4.81098 3.61533 5.00641 3.64261C5.08899 3.65353 5.17157 3.66171 5.25415 3.65626C5.40829 3.64807 5.51289 3.72174 5.56519 3.85544C5.74962 4.33021 5.92854 4.80498 6.10745 5.28248C6.16801 5.4462 6.06341 5.57444 5.97533 5.69177C5.87348 5.83093 5.74962 5.95371 5.6285 6.0765C5.50463 6.20201 5.48812 6.27295 5.57345 6.42575C6.07167 7.32345 6.77083 8.01378 7.72048 8.43943C7.75351 8.45308 7.78654 8.47218 7.81958 8.48855C7.9462 8.54585 8.05905 8.53221 8.15539 8.42306C8.33156 8.21842 8.52424 8.03015 8.68665 7.81459C8.794 7.67271 8.86832 7.64815 9.03072 7.71909C9.51518 7.92646 9.96936 8.18841 10.4318 8.44216C10.5171 8.48855 10.5474 8.55949 10.5447 8.65772C10.5199 9.46265 10.0547 9.88285 9.23717 10.0684C8.84079 10.1584 8.4747 10.0602 8.11135 9.92923C7.34888 9.65637 6.61393 9.3344 5.99735 8.79415C5.50739 8.36303 5.07523 7.88281 4.70913 7.34528C4.42836 6.93054 4.13659 6.52398 3.97418 6.04102C3.8806 5.78454 3.81178 5.5226 3.81453 5.3125Z" fill="#2D2C2C"/>
</g>
<defs>
<clipPath id="clip0_5006_55656">
<rect width="14" height="14" fill="white"/>
</clipPath>
</defs>
</svg>
